<?xml version="1.0" encoding="utf-8" ?>
<svg xmlns="http://www.w3.org/2000/svg" xmlns:xlink="http://www.w3.org/1999/xlink" width="60" height="60" viewBox="0 0 60 60">
	<path transform="matrix(1 0 0 -1 0 60)" d="M0 0L60 0L60 60L0 60L0 0Z" fill-rule="nonzero" fill="rgb(196, 196, 196)" opacity="0"/>
	<path transform="matrix(0 1 -1 0 27.4479 6)" d="M0 0L0 -5L5.10417 -5L5.10417 0L0 0Z" fill-rule="nonzero" fill="rgb(55, 85, 132)"/>
	<path transform="matrix(1 0 0 1 23.875 6.51228)" d="M0 -4C-1.10457 -4 -2 -3.10457 -2 -2C-2 -0.89543 -1.10457 0 0 0L12.25 0C13.3546 0 14.25 -0.89543 14.25 -2C14.25 -3.10457 13.3546 -4 12.25 -4L0 -4Z" fill-rule="nonzero" fill="rgb(55, 85, 132)"/>
	<path transform="matrix(1 0 0 1 5.5 8.04167)" d="M24.5 0C38.031 0 49 10.969 49 24.5C49 38.031 38.031 49 24.5 49C10.969 49 0 38.031 0 24.5C0 10.969 10.969 0 24.5 0Z" fill-rule="nonzero" fill="rgb(55, 85, 132)"/>
	<path transform="matrix(1 0 0 1 13.6667 16.2083)" d="M16.3333 0C25.354 0 32.6667 7.31268 32.6667 16.3333C32.6667 25.354 25.354 32.6667 16.3333 32.6667C7.31268 32.6667 0 25.354 0 16.3333C0 7.31268 7.31268 0 16.3333 0Z" fill-rule="nonzero" fill="rgb(192, 235, 94)"/>
	<path transform="matrix(1 0 0 1 30 24.9318)" d="M0 -1.5C-0.82842 -1.5 -1.5 -0.82842 -1.5 0L-1.5 7.416Q-1.5 8.05456 -1.19378 8.6149Q-0.887552 9.17523 -0.350122 9.52009L5.87175 13.5125C6.56897 13.9598 7.49688 13.7573 7.94427 13.0601C8.39166 12.3628 8.18912 11.4349 7.49189 10.9875L1.5 7.14275L1.5 0C1.5 -0.82842 0.82842 -1.5 0 -1.5Z" fill-rule="evenodd" fill="rgb(240, 157, 55)"/>
</svg>
